HIERARCHY
ROOT joint_Root
{
	OFFSET 0.0 0.0 0.0
	CHANNELS 6 Xposition Yposition Zposition Zrotation Xrotation Yrotation 
	JOINT Hips
	{
		OFFSET 4.5925 91.4895 -427.239
		CHANNELS 6 Xposition Yposition Zposition Zrotation Xrotation Yrotation 
		JOINT Spine
		{
			OFFSET 15.7357 0.0 0.0
			CHANNELS 6 Xposition Yposition Zposition Zrotation Xrotation Yrotation 
			JOINT Chest
			{
				OFFSET 8.98455 -0.406207 0.0
				CHANNELS 6 Xposition Yposition Zposition Zrotation Xrotation Yrotation 
				JOINT Neck
				{
					OFFSET 16.3773 0.0 0.0
					CHANNELS 6 Xposition Yposition Zposition Zrotation Xrotation Yrotation 
					JOINT Head
					{
						OFFSET 6.45672 0.0 0.0
						CHANNELS 6 Xposition Yposition Zposition Zrotation Xrotation Yrotation 
						End Site
						{
							OFFSET 0.0 0.0 0.0
						}
					}
				}
				JOINT Shoulder_L
				{
					OFFSET 12.9942 -0.242716 4.98039
					CHANNELS 6 Xposition Yposition Zposition Zrotation Xrotation Yrotation 
					JOINT UpperArm_L
					{
						OFFSET 5.34809 0.0 0.0
						CHANNELS 6 Xposition Yposition Zposition Zrotation Xrotation Yrotation 
						JOINT LowerArm_L
						{
							OFFSET 24.3286 1.87007e-05 0.0
							CHANNELS 6 Xposition Yposition Zposition Zrotation Xrotation Yrotation 
							JOINT Hand_L
							{
								OFFSET 22.2916 0.0 0.0
								CHANNELS 6 Xposition Yposition Zposition Zrotation Xrotation Yrotation 
								End Site
								{
									OFFSET 0.0 0.0 0.0
								}
							}
						}
					}
				}
				JOINT Shoulder_R
				{
					OFFSET 12.9945 -0.242716 -4.98039
					CHANNELS 6 Xposition Yposition Zposition Zrotation Xrotation Yrotation 
					JOINT UpperArm_R
					{
						OFFSET -5.34813 0.0 0.0
						CHANNELS 6 Xposition Yposition Zposition Zrotation Xrotation Yrotation 
						JOINT LowerArm_R
						{
							OFFSET -24.3289 0.000322201 0.0
							CHANNELS 6 Xposition Yposition Zposition Zrotation Xrotation Yrotation 
							JOINT Hand_R
							{
								OFFSET -22.2915 -0.000108084 0.0
								CHANNELS 6 Xposition Yposition Zposition Zrotation Xrotation Yrotation 
								End Site
								{
									OFFSET 0.0 0.0 0.0
								}
							}
						}
					}
				}
			}
		}
		JOINT UpperLeg_L
		{
			OFFSET -2.19248 -6.46944 0.0
			CHANNELS 6 Xposition Yposition Zposition Zrotation Xrotation Yrotation 
			JOINT LowerLeg_L
			{
				OFFSET 39.0811 0.0 -1.23785e-05
				CHANNELS 6 Xposition Yposition Zposition Zrotation Xrotation Yrotation 
				JOINT Foot_L
				{
					OFFSET 40.9854 0.0 -1.26872e-05
					CHANNELS 6 Xposition Yposition Zposition Zrotation Xrotation Yrotation 
					JOINT Toes_L
					{
						OFFSET 11.7543 0.0 0.0
						CHANNELS 6 Xposition Yposition Zposition Zrotation Xrotation Yrotation 
						End Site
						{
							OFFSET 0.0 0.0 0.0
						}
					}
				}
			}
		}
		JOINT UpperLeg_R
		{
			OFFSET -2.19251 6.46944 0.0
			CHANNELS 6 Xposition Yposition Zposition Zrotation Xrotation Yrotation 
			JOINT LowerLeg_R
			{
				OFFSET -39.0811 -0.00228153 -0.0401928
				CHANNELS 6 Xposition Yposition Zposition Zrotation Xrotation Yrotation 
				JOINT Foot_R
				{
					OFFSET -40.9854 0.0 0.0
					CHANNELS 6 Xposition Yposition Zposition Zrotation Xrotation Yrotation 
					JOINT Toes_R
					{
						OFFSET -11.7543 0.0 0.0
						CHANNELS 6 Xposition Yposition Zposition Zrotation Xrotation Yrotation 
						End Site
						{
							OFFSET 0.0 0.0 0.0
						}
					}
				}
			}
		}
	}
}
MOTION
Frames:	5
Frame Time:	0.0333333
0.000000 0.000000 0.000000 0.000000 0.000000 -0.000000 -1.899590 89.523700 -0.948748 88.810300 -1.614440 13.485900 15.735700 0.000005 -0.000001 87.509600 77.533400 -87.523700 8.984550 -0.406207 -0.000000 17.145500 -1.066340 0.132538 16.377300 -0.000001 -0.000001 4.187800 -4.398490 2.423880 6.456720 -0.000001 -0.000000 -4.424570 -3.251840 1.901820 12.994200 -0.242716 4.980390 -91.112900 5.746750 -79.020300 5.348090 -0.000007 -0.000001 -54.373500 41.077400 -30.059100 24.328600 0.000019 0.000005 7.358200 20.066000 -20.625000 22.291600 -0.000001 0.000005 7.111720 5.279870 0.629683 12.994500 -0.242716 -4.980390 89.097600 10.661400 -85.133800 -5.348130 -0.000001 -0.000004 -61.099100 29.261000 -20.827700 -24.328900 0.000322 -0.000009 2.524200 5.770090 -23.685700 -22.291500 -0.000108 -0.000004 14.595200 5.382410 -2.374230 -2.192480 -6.469440 -0.000000 -172.823000 -11.495300 -0.884611 39.081100 -0.000007 -0.000012 -0.262363 0.340829 37.588800 40.985400 -0.000006 -0.000013 -0.634730 3.712950 -72.764100 11.754300 -0.000000 0.000003 -0.000188 -0.001754 -16.643800 -2.192510 6.469440 -0.000001 174.422000 20.081300 -178.897000 -39.081100 -0.002282 -0.040193 -0.209804 0.288249 36.474200 -40.985400 0.000008 0.000006 5.016310 10.306200 -73.798900 -11.754300 -0.000006 -0.000006 -0.003495 -0.046078 -18.447200
0.000000 0.000000 0.000000 0.000000 0.000000 -0.000000 -1.889160 89.529100 -0.948387 88.812200 -1.637670 13.487000 15.735700 0.000005 -0.000001 87.537700 77.517100 -87.564000 8.984550 -0.406207 -0.000000 17.178600 -1.056650 0.106962 16.377300 -0.000001 -0.000001 4.235610 -4.398930 2.385000 6.456720 -0.000001 -0.000000 -4.426930 -3.275710 1.895470 12.994200 -0.242716 4.980390 -91.112100 5.726680 -78.990600 5.348090 -0.000007 -0.000001 -54.293200 41.087700 -30.135500 24.328600 0.000019 0.000005 7.321410 19.930500 -20.652100 22.291600 -0.000001 0.000005 7.192560 5.276930 0.710189 12.994500 -0.242716 -4.980390 89.085800 10.685700 -85.081100 -5.348130 -0.000001 -0.000004 -61.154900 28.825000 -20.723700 -24.328900 0.000322 -0.000009 2.589240 5.674070 -24.587600 -22.291500 -0.000108 -0.000004 14.688400 5.384720 -2.447410 -2.192480 -6.469440 -0.000000 -172.824000 -11.506400 -0.873613 39.081100 -0.000007 -0.000012 -0.266750 0.346821 37.565500 40.985400 -0.000006 -0.000013 -0.637730 3.694930 -72.749100 11.754300 -0.000000 0.000003 -0.000185 -0.001731 -16.643000 -2.192510 6.469440 -0.000001 174.419000 20.058400 -178.894000 -39.081100 -0.002282 -0.040193 -0.206895 0.284558 36.450900 -40.985400 0.000008 0.000006 4.987190 10.330000 -73.773800 -11.754300 -0.000006 -0.000006 -0.003288 -0.043820 -18.355300
0.000000 0.000000 0.000000 0.000000 0.000000 -0.000000 -1.890230 89.528300 -0.951618 88.782900 -1.657860 13.485700 15.735700 0.000005 -0.000001 87.567200 77.486700 -87.587500 8.984550 -0.406207 -0.000000 17.239900 -1.046000 0.117960 16.377300 -0.000001 -0.000001 4.239840 -4.372840 2.315880 6.456720 -0.000001 -0.000000 -4.417570 -3.261320 1.838590 12.994200 -0.242716 4.980390 -91.126000 5.766590 -78.931400 5.348090 -0.000007 -0.000001 -54.202600 41.013300 -30.206300 24.328600 0.000019 0.000005 7.332210 19.876000 -20.730000 22.291600 -0.000001 0.000005 7.120880 5.277770 0.687184 12.994500 -0.242716 -4.980390 89.070700 10.670400 -84.993300 -5.348130 -0.000001 -0.000004 -61.276700 28.152700 -20.643500 -24.328900 0.000322 -0.000009 2.725950 5.671800 -25.731800 -22.291500 -0.000108 -0.000004 14.824700 5.388060 -2.553330 -2.192480 -6.469440 -0.000000 -172.793000 -11.521200 -0.882871 39.081100 -0.000007 -0.000012 -0.264852 0.344116 37.584600 40.985400 -0.000006 -0.000013 -0.635115 3.695680 -72.758100 11.754300 -0.000000 0.000003 -0.000192 -0.001791 -16.645200 -2.192510 6.469440 -0.000001 174.466000 20.051700 -178.899000 -39.081100 -0.002282 -0.040193 -0.199347 0.274261 36.458500 -40.985400 0.000008 0.000006 5.126090 10.285600 -73.808700 -11.754300 -0.000006 -0.000006 -0.003659 -0.047848 -18.519300
0.000000 0.000000 0.000000 0.000000 0.000000 -0.000000 -1.880680 89.528600 -0.952294 88.798100 -1.672220 13.485100 15.735700 0.000005 -0.000001 87.539300 77.439000 -87.565500 8.984550 -0.406207 -0.000000 17.334700 -1.062290 0.109546 16.377300 -0.000001 -0.000001 4.209290 -4.365760 2.265230 6.456720 -0.000001 -0.000000 -4.403880 -3.222780 1.705170 12.994200 -0.242716 4.980390 -91.135600 5.821060 -78.941300 5.348090 -0.000007 -0.000001 -54.138700 40.903600 -30.228400 24.328600 0.000019 0.000005 7.384930 19.966900 -20.784400 22.291600 -0.000001 0.000005 7.182840 5.279980 0.626735 12.994500 -0.242716 -4.980390 89.051700 10.668900 -84.890700 -5.348130 -0.000001 -0.000004 -61.360000 27.356200 -20.595000 -24.328900 0.000322 -0.000009 2.873430 5.595860 -27.245500 -22.291500 -0.000108 -0.000004 14.992600 5.391690 -2.669150 -2.192480 -6.469440 -0.000000 -172.809000 -11.542900 -0.877032 39.081100 -0.000007 -0.000012 -0.264033 0.343147 37.576800 40.985400 -0.000006 -0.000013 -0.630107 3.694840 -72.755800 11.754300 -0.000000 0.000003 -0.000200 -0.001854 -16.647500 -2.192510 6.469440 -0.000001 174.449000 20.027100 -178.907000 -39.081100 -0.002282 -0.040193 -0.201513 0.277169 36.461000 -40.985400 0.000008 0.000006 5.072390 10.278200 -73.794400 -11.754300 -0.000006 -0.000006 -0.003562 -0.046803 -18.476700
0.000000 0.000000 0.000000 0.000000 0.000000 -0.000000 -1.868010 89.522300 -0.956758 88.796600 -1.689880 13.520900 15.735700 0.000005 -0.000001 87.488200 77.381300 -87.515900 8.984550 -0.406207 -0.000000 17.449200 -1.089200 0.111577 16.377300 -0.000001 -0.000001 4.219840 -4.347980 2.218320 6.456720 -0.000001 -0.000000 -4.393040 -3.146750 1.585550 12.994200 -0.242716 4.980390 -91.147100 5.862680 -78.909400 5.348090 -0.000007 -0.000001 -54.012900 40.915600 -30.320500 24.328600 0.000019 0.000005 7.351400 19.896400 -20.761500 22.291600 -0.000001 0.000005 7.194140 5.280260 0.619086 12.994500 -0.242716 -4.980390 89.032600 10.684700 -84.795900 -5.348130 -0.000001 -0.000004 -61.334500 26.554600 -20.552800 -24.328900 0.000322 -0.000009 2.947660 5.303880 -29.128500 -22.291500 -0.000108 -0.000004 15.446700 5.399490 -2.920790 -2.192480 -6.469440 -0.000000 -172.805000 -11.549300 -0.855673 39.081100 -0.000007 -0.000012 -0.265475 0.344655 37.606300 40.985400 -0.000006 -0.000013 -0.622293 3.690440 -72.770400 11.754300 -0.000000 0.000003 -0.000199 -0.001843 -16.647100 -2.192510 6.469440 -0.000001 174.415000 20.045900 -178.883000 -39.081100 -0.002282 -0.040193 -0.207079 0.284451 36.485100 -40.985400 0.000008 0.000006 5.046180 10.340100 -73.793800 -11.754300 -0.000006 -0.000006 -0.003437 -0.045451 -18.421700
